<svg width="18" height="16" viewBox="0 0 18 16" fill="none" xmlns="http://www.w3.org/2000/svg">
<path d="M4 11H14V5H4V11ZM18 6.5V3.5C18 2.6875 17.3125 2 16.5 2H1.5C0.65625 2 0 2.6875 0 3.5V6.5C0.8125 6.5 1.5 7.15625 1.5 7.96875C1.5 8.75 0.8125 9.5 0 9.5V12.5C0 13.3438 0.65625 14 1.5 14H16.5C17.3125 14 18 13.3438 18 12.5V9.5C17.1562 9.5 16.5 8.84375 16.5 8C16.5 7.1875 17.1562 6.5 18 6.5ZM15 11.25C15 11.6875 14.6562 12 14.25 12H3.75C3.3125 12 3 11.6875 3 11.25V4.75C3 4.34375 3.3125 4 3.75 4H14.25C14.6562 4 15 4.34375 15 4.75V11.25Z" fill="white"/>
</svg>
